<svg preserveAspectRatio="xMidYMid meet" overflow="visible" viewBox="0 0 94.2164 59" fill="none" xmlns="http://www.w3.org/2000/svg">
<g id="Frame 33">
<g id="fluent-emoji-high-contrast:motorcycle">
<path id="Vector" d="M29.0723 31.3445H29.0631C29.0631 26.477 32.2159 22.3286 36.6225 20.8536C37.8209 20.4479 38.7981 21.8861 37.9869 22.8633L35.5199 25.8133H37.3784C37.8947 25.8133 38.3003 26.2189 38.3003 26.7351C38.3003 27.2514 37.8762 27.657 37.3784 27.657H43.8131C45.8412 27.657 47.5006 29.3164 47.5006 31.3445H60.4069V29.4454C60.4069 28.4683 61.1997 27.657 62.1953 27.657H69.6625C70.6581 27.657 71.4694 28.4683 71.4878 29.4454V29.6483C71.4878 30.2419 71.3624 30.8172 71.1227 31.3445H67.7819V31.3629C66.7678 31.3629 65.9381 32.1926 65.9381 33.2067C65.9381 34.0548 66.5097 34.7186 67.2841 34.9398H67.3449C65.715 36.0239 63.934 36.8813 62.0847 37.5764C61.1859 37.9145 60.3349 38.3682 59.5532 38.926L60.6263 39.9751C62.0843 39.0666 63.7883 38.6331 65.5032 38.7344C67.2181 38.8358 68.8592 39.4669 70.2001 40.5407C71.541 41.6145 72.5156 43.0781 72.9892 44.7293C73.4628 46.3806 73.4122 48.1382 72.8444 49.7595C72.2765 51.3808 71.2194 52.7859 69.8189 53.7808C68.4185 54.7756 66.7437 55.3113 65.0258 55.3137C63.308 55.3162 61.6317 54.7854 60.2284 53.7945C58.825 52.8037 57.7639 51.4017 57.1914 49.782H54.4331C53.8026 50.8772 52.5691 51.6258 51.1881 51.6258H43.8131C41.8163 51.6258 40.1256 49.8558 40.1256 47.9383C40.1256 46.6163 39.8915 45.4031 39.4932 44.2508C39.2729 43.619 39.0099 43.003 38.7059 42.407H38.6875C38.5287 42.1097 38.3583 41.8188 38.1768 41.5349L37.0244 42.6227C38.105 44.353 38.5102 46.4206 38.1627 48.4307C37.8153 50.4408 36.7394 52.2525 35.1408 53.5196C33.5422 54.7867 31.5327 55.4205 29.4964 55.2998C27.46 55.1792 25.5395 54.3126 24.1017 52.8656C22.6638 51.4185 21.8095 49.4925 21.7018 47.4555C21.5941 45.4184 22.2407 43.413 23.5179 41.8225C24.7952 40.2319 26.6137 39.1677 28.6259 38.833C30.6382 38.4984 32.7033 38.9168 34.4266 40.0083L35.7283 38.7324C35.0032 38.1199 34.2079 37.5956 33.3591 37.1708L32.3634 36.6729L32.3487 36.6656C32.6037 36.1582 32.7411 35.5998 32.7506 35.032C32.7477 34.0565 32.3595 33.1217 31.6706 32.431C30.9817 31.7404 30.0478 31.3498 29.0723 31.3445ZM56.3875 42.407H56.3451C55.9948 42.9896 55.7065 43.6042 55.4804 44.2508C55.2677 44.8604 55.111 45.4934 55.0102 46.1498H56.7636C56.8964 44.8721 57.3186 43.6792 57.9639 42.643L56.8798 41.6345C56.7051 41.8851 56.5409 42.1428 56.3875 42.407ZM64.7342 44.2655C64.0167 44.3399 63.3568 44.6916 62.895 45.2457C62.4332 45.7997 62.2061 46.5122 62.2622 47.2313C62.3182 47.9504 62.6529 48.6191 63.195 49.0949C63.7371 49.5707 64.4436 49.8159 65.1638 49.7782C65.8841 49.7406 66.5612 49.423 67.0507 48.8933C67.5401 48.3636 67.8033 47.6636 67.7841 46.9426C67.7648 46.2216 67.4647 45.5366 66.9476 45.0337C66.4305 44.5309 65.7375 44.2499 65.0162 44.2508H64.9978C64.9093 44.2508 64.8214 44.2557 64.7342 44.2655ZM30.0919 44.2508H29.985C29.2561 44.2523 28.5573 44.5415 28.0406 45.0554C27.5238 45.5694 27.2308 46.2666 27.2252 46.9954C27.2197 47.7243 27.5021 48.4258 28.0111 48.9476C28.52 49.4693 29.2144 49.769 29.9431 49.7816C30.6719 49.7941 31.3761 49.5185 31.9027 49.0146C32.4294 48.5108 32.7358 47.8194 32.7554 47.0908C32.775 46.3622 32.5062 45.6553 32.0075 45.1238C31.5087 44.5924 30.8203 44.2774 30.0919 44.2508ZM34.6128 33.1883C34.6128 34.2023 35.4425 35.032 36.4566 35.032H38.3003V31.3445H36.4566C35.4425 31.3445 34.6128 32.1742 34.6128 33.1883ZM41.4291 44.2508C41.7684 45.3939 41.9694 46.6163 41.9694 47.9383C41.9694 48.8638 42.8599 49.782 43.8131 49.782H51.1881C52.2759 49.782 53.0319 48.9339 53.0319 48.1411V47.9383C53.0319 46.6753 53.1997 45.4344 53.5444 44.2508H41.4291Z" fill="var(--fill-0, white)"/>
</g>
<g id="Vector_2">
<path d="M92.0309 35.0206H92.7829V37.2764H92.0309V35.0206Z" fill="var(--fill-0, white)"/>
<path fill-rule="evenodd" clip-rule="evenodd" d="M79.5348 24.0002C79.8653 24.0022 80.3245 24.0242 80.8455 24.1022C81.8634 24.2546 83.2436 24.6414 84.3211 25.6502C85.0647 26.3465 85.5217 27.2053 85.8051 28.0007C85.9486 27.7619 86.0854 27.5576 86.2009 27.3956C86.2971 27.2607 86.3793 27.1529 86.4396 27.0769C86.4697 27.039 86.4948 27.0086 86.513 26.9866L86.5424 26.9514L86.5453 26.9484L86.546 26.947L86.5468 26.9462C86.8988 26.5389 87.5016 26.4611 87.9456 26.7656L87.9464 26.7663L87.9478 26.7671L87.9515 26.7693C87.954 26.771 87.9568 26.7734 87.9603 26.7759C87.9676 26.781 87.9774 26.7882 87.989 26.7964C88.0122 26.813 88.0442 26.8357 88.083 26.8647C88.1605 26.9228 88.2677 27.0062 88.395 27.1122C88.6487 27.3234 88.9891 27.6315 89.3416 28.022C89.9872 28.7375 90.7477 29.8144 90.9974 31.1509L91.0408 31.4212C91.1623 32.3578 91.0026 33.2464 90.7493 34.0037C90.9188 33.9229 91.0734 33.8552 91.2067 33.8003C91.36 33.7372 91.4869 33.6902 91.5783 33.6579C91.624 33.6417 91.6613 33.6293 91.6884 33.6204L91.7325 33.6057L91.7362 33.605L91.7376 33.6043C91.7376 33.6043 91.7391 33.6041 91.9286 34.2218L91.7391 33.6035C92.254 33.4457 92.8057 33.7005 93.0198 34.1947L93.0205 34.1961V34.1976L93.0227 34.2013C93.0239 34.204 93.0254 34.2076 93.0271 34.2115C93.0305 34.2197 93.035 34.2308 93.0403 34.2439C93.0511 34.2702 93.0656 34.3067 93.0829 34.3518C93.1176 34.4422 93.1645 34.5696 93.2158 34.727C93.3181 35.0408 93.4422 35.4828 93.5323 36.0011C93.7084 37.0137 93.7757 38.4442 93.1556 39.7835C92.8586 40.4249 92.4423 40.959 91.9932 41.3998C92.3084 41.4049 92.5846 41.4241 92.8031 41.4468C92.9681 41.4639 93.1023 41.4832 93.1982 41.4982C93.2461 41.5056 93.2846 41.5122 93.3127 41.5173C93.3268 41.5198 93.3385 41.5215 93.3473 41.5231C93.3516 41.5239 93.3553 41.5247 93.3583 41.5253L93.3627 41.5261L93.3641 41.5268C93.3638 41.5299 93.3536 41.5846 93.1585 42.5637L93.3656 41.5268C93.8945 41.6323 94.2593 42.1197 94.2123 42.6569L94.2115 42.6591V42.6635C94.2113 42.6665 94.2105 42.6703 94.2101 42.6745C94.2092 42.6834 94.2087 42.6956 94.2071 42.7098C94.2041 42.7381 94.1994 42.7772 94.1932 42.8251C94.1806 42.9211 94.1606 43.0551 94.1308 43.2179C94.0713 43.5425 93.9707 43.9903 93.8033 44.489C93.476 45.4636 92.8541 46.7535 91.6715 47.6378C91.0681 48.0889 90.4037 48.3688 89.7616 48.5417C89.9443 48.8005 90.0081 49.1376 89.9099 49.4603L88.898 49.1519C89.8616 49.4453 89.9071 49.46 89.9092 49.4611L89.9085 49.4633L89.9077 49.4669C89.9068 49.4699 89.9054 49.4737 89.9041 49.478C89.9014 49.4864 89.8981 49.4976 89.8938 49.511C89.8849 49.5381 89.8724 49.5754 89.8563 49.6211C89.8242 49.7125 89.7774 49.8395 89.7146 49.9927C89.5895 50.298 89.3977 50.7149 89.1308 51.1683C88.6093 52.0544 87.7347 53.1882 86.3948 53.8097C85.0554 54.4308 83.6232 54.3673 82.6086 54.1945C82.0895 54.106 81.6469 53.9835 81.3324 53.8824C81.1746 53.8316 81.0471 53.7853 80.9564 53.7509C80.9111 53.7337 80.8742 53.7198 80.8477 53.7091C80.8346 53.7037 80.8237 53.6993 80.8154 53.6959C80.8114 53.6942 80.808 53.6926 80.8052 53.6915L80.8015 53.69L80.8 53.6892L80.7993 53.6885C80.303 53.4762 80.0456 52.9234 80.203 52.4071L80.2037 52.4049L80.2052 52.4013C80.2061 52.3983 80.2068 52.3944 80.2082 52.3902C80.2108 52.3818 80.2148 52.3706 80.2192 52.3572C80.2281 52.3301 80.2406 52.2927 80.2566 52.2471C80.2888 52.1557 80.3355 52.0286 80.3983 51.8755C80.5236 51.5703 80.7152 51.1532 80.9821 50.6999C81.504 49.8138 82.3788 48.6799 83.7182 48.0578C84.2483 47.8119 84.7937 47.6739 85.3212 47.6069C85.3218 47.5857 85.3222 47.5638 85.3241 47.5423V47.5394L85.3249 47.5357C85.3251 47.5326 85.3252 47.5283 85.3256 47.5239C85.3265 47.5151 85.3278 47.5034 85.3293 47.4894C85.3323 47.461 85.337 47.4222 85.3432 47.3741C85.3558 47.2781 85.3751 47.1441 85.4049 46.9813C85.4643 46.6567 85.5657 46.2089 85.7331 45.7102C86.0321 44.82 86.5772 43.6677 87.5704 42.8008C87.5544 42.7718 87.5398 42.7415 87.5263 42.7105L87.8575 42.5666L87.8597 42.5651C87.5256 42.7097 87.5256 42.7098 87.5256 42.7098L87.5249 42.7076L87.5234 42.7039C87.5222 42.7011 87.5207 42.6976 87.519 42.6936C87.5155 42.6854 87.5104 42.6744 87.505 42.6613C87.4942 42.6349 87.4798 42.5985 87.4625 42.5534C87.4277 42.4629 87.3816 42.3355 87.3303 42.1781C87.228 41.8645 87.1032 41.4229 87.0131 40.9048C86.837 39.8925 86.7703 38.4624 87.3905 37.1231C87.4556 36.9826 87.5272 36.8475 87.6027 36.717C87.5413 36.6694 87.4684 36.6141 87.389 36.5481C87.1351 36.3371 86.7938 36.0296 86.441 35.6391C85.7519 34.8761 84.9316 33.7018 84.7418 32.2384C84.7282 32.1331 84.7193 32.0281 84.7124 31.9242C84.3865 31.9204 83.9477 31.8989 83.4531 31.825C82.4352 31.673 81.0545 31.2862 79.9769 30.2771C78.8994 29.2681 78.4234 27.9177 78.2057 26.9132C78.0943 26.3992 78.0439 25.9432 78.0206 25.6142C78.009 25.4491 78.0034 25.3138 78.0015 25.2169C78.0006 25.1687 78.0007 25.1294 78.0008 25.1009C78.0008 25.0867 78.0007 25.0746 78.0008 25.0657C78.0009 25.0614 78.0015 25.0576 78.0015 25.0546V25.048C78.0139 24.5091 78.4301 24.0646 78.9672 24.0178H78.9701L78.9738 24.0171C78.9769 24.0168 78.9811 24.0167 78.9855 24.0163C78.9944 24.0156 79.006 24.0151 79.02 24.0141C79.0485 24.0122 79.0876 24.0097 79.1361 24.0075C79.233 24.0032 79.3689 23.9991 79.5348 24.0002ZM87.1489 49.7577C86.3781 49.6261 85.5075 49.6141 84.7572 49.9119L84.6089 49.9758C83.8267 50.3392 83.2271 51.0555 82.8047 51.7727C82.7492 51.8669 82.6977 51.9595 82.6505 52.0488C82.7502 52.0705 82.8551 52.0912 82.964 52.1097C83.7868 52.2499 84.7231 52.2538 85.5055 51.8909C86.2873 51.5282 86.8863 50.8124 87.3082 50.0955C87.3637 50.0013 87.4145 49.9087 87.4617 49.8194C87.3622 49.7977 87.2577 49.7763 87.1489 49.7577ZM91.5717 43.5175C90.7377 43.5499 89.8209 43.7388 89.1308 44.2548C88.4411 44.7705 88.0027 45.5948 87.7378 46.3836C87.703 46.4872 87.6716 46.5882 87.6438 46.6854C87.7463 46.6861 87.8537 46.6853 87.9647 46.681C88.7987 46.6486 89.7148 46.4596 90.4049 45.9437C91.0945 45.428 91.5337 44.6045 91.7986 43.8157C91.8335 43.7117 91.8633 43.6098 91.8911 43.5124C91.789 43.5117 91.6822 43.5132 91.5717 43.5175ZM91.1047 36.2074C90.3863 36.6312 89.6705 37.2315 89.3093 38.0116C88.9483 38.7912 88.9545 39.7228 89.097 40.5421C89.1159 40.6508 89.1367 40.7555 89.1587 40.8549C89.2499 40.8067 89.3451 40.7553 89.4414 40.6985C90.1597 40.2751 90.8749 39.6749 91.2361 38.895C91.597 38.1155 91.5915 37.1836 91.449 36.3638C91.4301 36.2546 91.408 36.1494 91.3859 36.0495C91.2949 36.0977 91.2008 36.1507 91.1047 36.2074ZM87.3964 29.4862C87.0146 30.226 86.7286 31.1143 86.839 31.9667C86.9496 32.8182 87.4521 33.6039 88.0103 34.2218C88.085 34.3045 88.1597 34.3823 88.232 34.4553C88.2833 34.3663 88.3359 34.2723 88.387 34.1734C88.7687 33.4339 89.0538 32.5465 88.9436 31.6951L88.9186 31.5364C88.7699 30.7462 88.2951 30.0187 87.7716 29.4385C87.6968 29.3556 87.6223 29.2774 87.5498 29.2043C87.4987 29.2931 87.4473 29.3875 87.3964 29.4862ZM80.2728 26.4653C80.4491 27.2784 80.7944 28.1452 81.4227 28.7336C82.0509 29.3216 82.9399 29.6097 83.7652 29.733C83.8753 29.7494 83.9824 29.7621 84.0846 29.7726C84.0677 29.6728 84.0484 29.5683 84.0251 29.4613C83.8489 28.6487 83.5042 27.782 82.8759 27.1937C82.2475 26.6054 81.3575 26.3172 80.532 26.1936C80.4218 26.1771 80.3148 26.1637 80.2126 26.1532C80.2295 26.2533 80.2495 26.3578 80.2728 26.4653Z" fill="var(--fill-0, white)"/>
</g>
<g id="Vector_3">
<path d="M2.18541 35.0206H1.43347V37.2764H2.18541V35.0206Z" fill="var(--fill-0, white)"/>
<path fill-rule="evenodd" clip-rule="evenodd" d="M14.6816 24.0002C14.3511 24.0022 13.8918 24.0242 13.3708 24.1022C12.353 24.2546 10.9727 24.6414 9.8953 25.6502C9.15165 26.3465 8.69462 27.2053 8.41125 28.0007C8.26773 27.7619 8.13093 27.5576 8.01545 27.3956C7.91926 27.2607 7.83704 27.1529 7.7768 27.0769C7.7467 27.039 7.7216 27.0086 7.70337 26.9866L7.674 26.9514L7.67106 26.9484L7.67033 26.947L7.66959 26.9462C7.31752 26.5389 6.71475 26.4611 6.27072 26.7656L6.26998 26.7663L6.26852 26.7671L6.26485 26.7693C6.2624 26.771 6.25952 26.7734 6.25604 26.7759C6.24873 26.781 6.23897 26.7882 6.2274 26.7964C6.20419 26.813 6.17213 26.8357 6.1334 26.8647C6.05586 26.9228 5.94862 27.0062 5.82132 27.1122C5.56765 27.3234 5.22721 27.6315 4.87479 28.022C4.2292 28.7375 3.46861 29.8144 3.21891 31.1509L3.17559 31.4212C3.05408 32.3578 3.2138 33.2464 3.4671 34.0037C3.29752 33.9229 3.14291 33.8552 3.00963 33.8003C2.85639 33.7372 2.72949 33.6902 2.63806 33.6579C2.59231 33.6417 2.55507 33.6293 2.52792 33.6204L2.48386 33.6057L2.48019 33.605L2.47872 33.6043C2.47872 33.6043 2.47724 33.6041 2.2878 34.2218L2.47725 33.6035C1.96234 33.4457 1.41064 33.7005 1.1966 34.1947L1.19587 34.1961V34.1976L1.19367 34.2013C1.19248 34.204 1.19094 34.2076 1.18927 34.2115C1.18582 34.2197 1.18139 34.2308 1.17604 34.2439C1.16526 34.2702 1.15076 34.3067 1.13346 34.3518C1.09876 34.4422 1.05186 34.5696 1.00054 34.727C0.898285 35.0408 0.774189 35.4828 0.684054 36.0011C0.507988 37.0137 0.44066 38.4442 1.06076 39.7835C1.35774 40.4249 1.77404 40.959 2.22318 41.3998C1.90795 41.4049 1.6318 41.4241 1.41323 41.4468C1.24824 41.4639 1.11401 41.4832 1.01817 41.4982C0.970274 41.5056 0.931732 41.5122 0.903613 41.5173C0.889583 41.5198 0.877891 41.5215 0.869105 41.5231C0.864805 41.5239 0.861084 41.5247 0.858089 41.5253L0.853679 41.5261L0.852214 41.5268C0.852508 41.5299 0.862796 41.5846 1.05782 42.5637L0.850741 41.5268C0.321893 41.6323 -0.0429662 42.1197 0.00407698 42.6569L0.00480941 42.6591V42.6635C0.00508767 42.6665 0.00585523 42.6703 0.00628188 42.6745C0.00714922 42.6834 0.00769623 42.6956 0.0092192 42.7098C0.0122858 42.7381 0.0169278 42.7772 0.0231734 42.8251C0.0357091 42.9211 0.0557937 43.0551 0.0855894 43.2179C0.145011 43.5425 0.245644 43.9903 0.413089 44.489C0.740367 45.4636 1.3623 46.7535 2.54481 47.6378C3.14822 48.0889 3.81263 48.3688 4.45476 48.5417C4.27201 48.8005 4.20822 49.1376 4.30643 49.4603L5.31832 49.1519C4.35472 49.4453 4.30922 49.46 4.30716 49.4611L4.30789 49.4633L4.30863 49.4669C4.30954 49.4699 4.31097 49.4737 4.3123 49.478C4.31497 49.4864 4.31822 49.4976 4.32258 49.511C4.33144 49.5381 4.34398 49.5754 4.36003 49.6211C4.39213 49.7125 4.43896 49.8395 4.50176 49.9927C4.6269 50.298 4.81866 50.7149 5.08554 51.1683C5.60707 52.0544 6.4817 53.1882 7.8216 53.8097C9.16099 54.4308 10.5931 54.3673 11.6077 54.1945C12.1269 54.106 12.5695 53.9835 12.884 53.8824C13.0418 53.8316 13.1692 53.7853 13.2599 53.7509C13.3053 53.7337 13.3421 53.7198 13.3686 53.7091C13.3818 53.7037 13.3927 53.6993 13.4009 53.6959C13.4049 53.6942 13.4084 53.6926 13.4112 53.6915L13.4149 53.69L13.4163 53.6892L13.4171 53.6885C13.9133 53.4762 14.1708 52.9234 14.0133 52.4071L14.0126 52.4049L14.0111 52.4013C14.0102 52.3983 14.0095 52.3944 14.0082 52.3902C14.0055 52.3818 14.0016 52.3706 13.9972 52.3572C13.9883 52.3301 13.9758 52.2927 13.9597 52.2471C13.9276 52.1557 13.8809 52.0286 13.818 51.8755C13.6927 51.5703 13.5012 51.1532 13.2342 50.6999C12.7124 49.8138 11.8375 48.6799 10.4982 48.0578C9.96801 47.8119 9.42261 47.6739 8.89517 47.6069C8.89459 47.5857 8.89411 47.5638 8.89223 47.5423V47.5394L8.89149 47.5357C8.89122 47.5326 8.89119 47.5283 8.89076 47.5239C8.88989 47.5151 8.8886 47.5034 8.88709 47.4894C8.88402 47.461 8.8794 47.4222 8.87313 47.3741C8.8606 47.2781 8.84125 47.1441 8.81145 46.9813C8.75203 46.6567 8.65069 46.2089 8.48321 45.7102C8.18429 44.82 7.63913 43.6677 6.64596 42.8008C6.66195 42.7718 6.67659 42.7415 6.69001 42.7105L6.35884 42.5666L6.35664 42.5651C6.69071 42.7097 6.69075 42.7098 6.69075 42.7098L6.69149 42.7076L6.69295 42.7039C6.69413 42.7011 6.6957 42.6976 6.69736 42.6936C6.70084 42.6854 6.70594 42.6744 6.71131 42.6613C6.72213 42.6349 6.73657 42.5985 6.7539 42.5534C6.78862 42.4629 6.83475 42.3355 6.88608 42.1781C6.98835 41.8645 7.11317 41.4229 7.2033 40.9048C7.37938 39.8925 7.44601 38.4624 6.82586 37.1231C6.76079 36.9826 6.68916 36.8475 6.61365 36.717C6.67501 36.6694 6.74797 36.6141 6.82733 36.5481C7.08125 36.3371 7.42257 36.0296 7.77533 35.6391C8.46441 34.8761 9.28471 33.7018 9.47454 32.2384C9.48818 32.1331 9.49706 32.0281 9.50391 31.9242C9.82986 31.9204 10.2687 31.8989 10.7633 31.825C11.7812 31.673 13.1618 31.2862 14.2395 30.2771C15.317 29.2681 15.7929 27.9177 16.0107 26.9132C16.1221 26.3992 16.1724 25.9432 16.1957 25.6142C16.2074 25.4491 16.2129 25.3138 16.2148 25.2169C16.2157 25.1687 16.2156 25.1294 16.2155 25.1009C16.2155 25.0867 16.2157 25.0746 16.2155 25.0657C16.2155 25.0614 16.2149 25.0576 16.2148 25.0546V25.048C16.2024 24.5091 15.7863 24.0646 15.2492 24.0178H15.2463L15.2426 24.0171C15.2395 24.0168 15.2353 24.0167 15.2308 24.0163C15.222 24.0156 15.2104 24.0151 15.1963 24.0141C15.1678 24.0122 15.1287 24.0097 15.0803 24.0075C14.9834 24.0032 14.8475 23.9991 14.6816 24.0002ZM7.06745 49.7577C7.83822 49.6261 8.70887 49.6141 9.45912 49.9119L9.60745 49.9758C10.3897 50.3392 10.9893 51.0555 11.4117 51.7727C11.4671 51.8669 11.5186 51.9595 11.5659 52.0488C11.4662 52.0705 11.3613 52.0912 11.2523 52.1097C10.4295 52.2499 9.49327 52.2538 8.71085 51.8909C7.92905 51.5282 7.33007 50.8124 6.90811 50.0955C6.85268 50.0013 6.80184 49.9087 6.75463 49.8194C6.85416 49.7977 6.95869 49.7763 7.06745 49.7577ZM2.64467 43.5175C3.47866 43.5499 4.39547 43.7388 5.08554 44.2548C5.77521 44.7705 6.21364 45.5948 6.47853 46.3836C6.51333 46.4872 6.54476 46.5882 6.57253 46.6854C6.47002 46.6861 6.36263 46.6853 6.25163 46.681C5.41765 46.6486 4.50157 46.4596 3.8115 45.9437C3.12181 45.428 2.68265 44.6045 2.41777 43.8157C2.38286 43.7117 2.35309 43.6098 2.32525 43.5124C2.42732 43.5117 2.53419 43.5132 2.64467 43.5175ZM3.1117 36.2074C3.83009 36.6312 4.54582 37.2315 4.9071 38.0116C5.26805 38.7912 5.26181 39.7228 5.11932 40.5421C5.10041 40.6508 5.07967 40.7555 5.05764 40.8549C4.96648 40.8067 4.87124 40.7553 4.77492 40.6985C4.05664 40.2751 3.34146 39.6749 2.98026 38.895C2.61933 38.1155 2.62481 37.1836 2.76731 36.3638C2.7863 36.2546 2.80831 36.1494 2.83045 36.0495C2.92145 36.0977 3.01556 36.1507 3.1117 36.2074ZM6.81999 29.4862C7.20179 30.226 7.4878 31.1143 7.37734 31.9667C7.2668 32.8182 6.76427 33.6039 6.2061 34.2218C6.13139 34.3045 6.05671 34.3823 5.98434 34.4553C5.93305 34.3663 5.88049 34.2723 5.8294 34.1734C5.44769 33.4339 5.1626 32.5465 5.27279 31.6951L5.29776 31.5364C5.44647 30.7462 5.92122 30.0187 6.44476 29.4385C6.51955 29.3556 6.59408 29.2774 6.66651 29.2043C6.71768 29.2931 6.76902 29.3875 6.81999 29.4862ZM13.9436 26.4653C13.7673 27.2784 13.4219 28.1452 12.7936 28.7336C12.1655 29.3216 11.2765 29.6097 10.4512 29.733C10.3411 29.7494 10.2339 29.7621 10.1317 29.7726C10.1487 29.6728 10.168 29.5683 10.1912 29.4613C10.3675 28.6487 10.7122 27.782 11.3404 27.1937C11.9688 26.6054 12.8589 26.3172 13.6844 26.1936C13.7946 26.1771 13.9015 26.1637 14.0038 26.1532C13.9868 26.2533 13.9669 26.3578 13.9436 26.4653Z" fill="var(--fill-0, white)"/>
</g>
</g>
</svg>
