<svg preserveAspectRatio="none" width="100%" height="100%" overflow="visible" style="display: block;" viewBox="0 0 22.25 22.25" fill="none" xmlns="http://www.w3.org/2000/svg">
<path id="icon" d="M2.47222 22.25C1.79236 22.25 1.20521 22.0131 0.710764 21.5392C0.236921 21.0448 0 20.4576 0 19.7778V2.47222C0 1.79236 0.236921 1.21551 0.710764 0.741668C1.20521 0.247223 1.79236 0 2.47222 0H19.7778C20.4576 0 21.0345 0.247223 21.5083 0.741668C22.0028 1.21551 22.25 1.79236 22.25 2.47222V19.7778C22.25 20.4576 22.0028 21.0448 21.5083 21.5392C21.0345 22.0131 20.4576 22.25 19.7778 22.25H2.47222ZM2.47222 19.7778H19.7778V2.47222H2.47222V19.7778ZM3.70833 17.3056H18.5417L13.9063 11.125L10.1979 16.0694L7.41667 12.3611L3.70833 17.3056ZM2.47222 19.7778V2.47222V19.7778Z" fill="var(--fill-0, white)"/>
</svg>
