<svg preserveAspectRatio="xMidYMid meet" overflow="visible" viewBox="0 0 40 40" fill="none" xmlns="http://www.w3.org/2000/svg">
<g id="streamline-plump:food-truck-event-fair-solid">
<path id="Vector" fill-rule="evenodd" clip-rule="evenodd" d="M26.2093 8.9125C26.1793 7.86131 26.1237 6.811 26.0427 5.7625C25.8518 3.35083 23.9377 1.5875 21.5777 1.4525C19.7443 1.34833 17.036 1.25 13.3327 1.25C9.62935 1.25 6.92018 1.34833 5.08768 1.4525C2.72768 1.5875 0.812682 3.35083 0.622682 5.76333C0.510182 7.18833 0.416016 9.13667 0.416016 11.6667V20.8333C0.416016 20.885 0.419349 20.9364 0.426016 20.9875C0.419349 21.3875 0.416016 21.7906 0.416016 22.1967C0.416016 25.1367 0.591849 27.4717 0.786016 29.1492C1.03268 31.2933 2.62018 32.865 4.59768 33.2967C4.71363 31.5712 5.49554 29.9583 6.77833 28.7985C8.06113 27.6387 9.74441 27.0227 11.4728 27.0807C13.2012 27.1387 14.8394 27.866 16.0416 29.1092C17.2439 30.3523 17.9159 32.014 17.916 33.7433C19.3049 33.7517 20.6938 33.7517 22.0827 33.7433C22.0827 32.018 22.7515 30.3599 23.9486 29.1175C25.1458 27.8751 26.778 27.1451 28.5021 27.0812C30.2262 27.0172 31.908 27.6241 33.194 28.7743C34.4799 29.9246 35.2698 31.5286 35.3977 33.2492C37.3977 32.71 38.9202 31.0075 39.1227 28.8425C39.3285 26.6475 39.5452 23.4508 39.5785 19.5133C39.5852 18.6567 39.4118 17.7683 38.9818 16.9533C38.1318 15.3417 36.0793 11.9283 32.901 9.83167C32.0452 9.2675 31.0752 9.04833 30.1743 9.01917C28.9327 8.9775 27.5977 8.9425 26.2093 8.9125ZM22.9127 11.7167C22.3427 12.6808 21.2518 13.3333 19.9993 13.3333C18.1577 13.3333 16.666 11.9242 16.666 10.185C16.666 11.925 15.1743 13.3333 13.3327 13.3333C11.491 13.3333 9.99935 11.9242 9.99935 10.185C9.99935 11.925 8.50768 13.3333 6.66602 13.3333C5.41352 13.3333 4.32268 12.6808 3.75268 11.7167C3.75046 11.97 3.74935 12.2311 3.74935 12.5V18.335C3.74935 19.0267 4.30685 19.5833 4.99685 19.5833H21.6685C22.3585 19.5833 22.916 19.0258 22.916 18.335V12.5C22.916 12.2311 22.9149 11.97 22.9127 11.7167ZM35.1902 17.6808C34.1327 16.015 32.5402 13.9792 30.5177 12.7825C30.1802 12.5908 29.7974 12.4932 29.4093 12.5H28.3327C27.8907 12.5 27.4667 12.6756 27.1542 12.9882C26.8416 13.3007 26.666 13.7246 26.666 14.1667V19.025C26.666 19.8208 27.2293 20.5017 28.0193 20.5983C29.2877 20.7542 31.326 20.9208 33.5985 20.7808C35.1868 20.6825 36.0427 19.025 35.1902 17.6808ZM15.8327 33.75C15.8327 34.9656 15.3498 36.1314 14.4903 36.9909C13.6307 37.8504 12.4649 38.3333 11.2493 38.3333C10.0338 38.3333 8.86798 37.8504 8.00844 36.9909C7.1489 36.1314 6.66602 34.9656 6.66602 33.75C6.66602 32.5344 7.1489 31.3686 8.00844 30.5091C8.86798 29.6496 10.0338 29.1667 11.2493 29.1667C12.4649 29.1667 13.6307 29.6496 14.4903 30.5091C15.3498 31.3686 15.8327 32.5344 15.8327 33.75ZM28.7493 38.3333C29.3512 38.3333 29.9472 38.2148 30.5033 37.9844C31.0594 37.7541 31.5647 37.4165 31.9903 36.9909C32.4159 36.5653 32.7535 36.06 32.9838 35.504C33.2141 34.9479 33.3327 34.3519 33.3327 33.75C33.3327 33.1481 33.2141 32.5521 32.9838 31.996C32.7535 31.44 32.4159 30.9347 31.9903 30.5091C31.5647 30.0835 31.0594 29.7459 30.5033 29.5156C29.9472 29.2852 29.3512 29.1667 28.7493 29.1667C27.5338 29.1667 26.368 29.6496 25.5084 30.5091C24.6489 31.3686 24.166 32.5344 24.166 33.75C24.166 34.9656 24.6489 36.1314 25.5084 36.9909C26.368 37.8504 27.5338 38.3333 28.7493 38.3333Z" fill="var(--fill-0, white)"/>
</g>
</svg>
