<svg preserveAspectRatio="none" width="100%" height="100%" overflow="visible" style="display: block;" viewBox="0 0 53.6649 53.6649" fill="none" xmlns="http://www.w3.org/2000/svg">
<g id="Frame 63">
<g id="Ellipse 16" filter="url(#filter0_i_0_37)">
<circle cx="26.8325" cy="26.8325" r="26.8325" fill="url(#paint0_radial_0_37)"/>
</g>
<g id="tabler:crown-filled">
<path id="Vector" d="M36.6484 36.5734H17.3984C16.7109 36.5734 16.1609 36.1609 16.0234 35.4734L13.2734 21.7234C13.2734 21.1734 13.4109 20.6234 13.9609 20.2109C14.5109 19.9359 15.0609 19.9359 15.4734 20.2109L21.1109 24.7484L25.7859 17.7359C26.3359 16.9109 27.5734 16.9109 28.1234 17.7359L32.7984 24.7484L38.4359 20.2109C38.8484 19.7984 39.5359 19.7984 39.9484 20.2109C40.4984 20.4859 40.6359 21.0359 40.6359 21.7234L37.8859 35.4734C37.8859 36.1609 37.1984 36.5734 36.5109 36.5734H36.6484Z" fill="var(--fill-0, white)"/>
</g>
</g>
<defs>
<filter id="filter0_i_0_37" x="0" y="-1.85052" width="53.6649" height="55.5155" filterUnits="userSpaceOnUse" color-interpolation-filters="sRGB">
<feFlood flood-opacity="0" result="BackgroundImageFix"/>
<feBlend mode="normal" in="SourceGraphic" in2="BackgroundImageFix" result="shape"/>
<feColorMatrix in="SourceAlpha" type="matrix" values="0 0 0 0 0 0 0 0 0 0 0 0 0 0 0 0 0 0 127 0" result="hardAlpha"/>
<feOffset dy="-2.31314"/>
<feGaussianBlur stdDeviation="0.925258"/>
<feComposite in2="hardAlpha" operator="arithmetic" k2="-1" k3="1"/>
<feColorMatrix type="matrix" values="0 0 0 0 0 0 0 0 0 0 0 0 0 0 0 0 0 0 0.25 0"/>
<feBlend mode="normal" in2="shape" result="effect1_innerShadow_0_37"/>
</filter>
<radialGradient id="paint0_radial_0_37" cx="0" cy="0" r="1" gradientUnits="userSpaceOnUse" gradientTransform="translate(26.8325 26.8325) rotate(90) scale(58.9852)">
<stop stop-color="#EC2C2C"/>
<stop offset="1" stop-color="#861919"/>
</radialGradient>
</defs>
</svg>
