<svg preserveAspectRatio="none" width="100%" height="100%" overflow="visible" style="display: block;" viewBox="0 0 33.8892 42.3615" fill="none" xmlns="http://www.w3.org/2000/svg">
<path id="icon" d="M16.9446 21.1807C18.1095 21.1807 19.1068 20.766 19.9364 19.9364C20.766 19.1068 21.1807 18.1095 21.1807 16.9446C21.1807 15.7797 20.766 14.7824 19.9364 13.9528C19.1068 13.1232 18.1095 12.7084 16.9446 12.7084C15.7797 12.7084 14.7824 13.1232 13.9528 13.9528C13.1232 14.7824 12.7084 15.7797 12.7084 16.9446C12.7084 18.1095 13.1232 19.1068 13.9528 19.9364C14.7824 20.766 15.7797 21.1807 16.9446 21.1807ZM16.9446 36.7486C21.2513 32.7949 24.4461 29.203 26.5289 25.9729C28.6117 22.7428 29.653 19.8746 29.653 17.3682C29.653 13.5204 28.4263 10.3697 25.9729 7.9163C23.5195 5.46287 20.51 4.23615 16.9446 4.23615C13.3792 4.23615 10.3697 5.46287 7.9163 7.9163C5.46287 10.3697 4.23615 13.5204 4.23615 17.3682C4.23615 19.8746 5.27754 22.7428 7.36031 25.9729C9.44308 29.203 12.6378 32.7949 16.9446 36.7486ZM16.9446 42.3615C11.2611 37.5252 7.01612 33.0331 4.20967 28.8852C1.40322 24.7373 0 20.8983 0 17.3682C0 12.073 1.70329 7.85453 5.10986 4.71272C8.51643 1.57091 12.4613 0 16.9446 0C21.4279 0 25.3728 1.57091 28.7793 4.71272C32.1859 7.85453 33.8892 12.073 33.8892 17.3682C33.8892 20.8983 32.486 24.7373 29.6795 28.8852C26.8731 33.0331 22.6281 37.5252 16.9446 42.3615Z" fill="var(--fill-0, white)"/>
</svg>
