<svg preserveAspectRatio="none" width="100%" height="100%" overflow="visible" style="display: block;" viewBox="0 0 25.2632 27.7632" fill="none" xmlns="http://www.w3.org/2000/svg">
<path id="Icon" d="M6.38158 12.6316V7.63158C6.38158 5.97398 7.04006 4.38426 8.21216 3.21216C9.38426 2.04006 10.974 1.38158 12.6316 1.38158C14.2892 1.38158 15.8789 2.04006 17.051 3.21216C18.2231 4.38426 18.8816 5.97398 18.8816 7.63158V12.6316M3.88158 12.6316H21.3816C22.7623 12.6316 23.8816 13.7509 23.8816 15.1316V23.8816C23.8816 25.2623 22.7623 26.3816 21.3816 26.3816H3.88158C2.50087 26.3816 1.38158 25.2623 1.38158 23.8816V15.1316C1.38158 13.7509 2.50087 12.6316 3.88158 12.6316Z" stroke="var(--stroke-0, white)" stroke-width="2.76316" stroke-linecap="round" stroke-linejoin="round"/>
</svg>
