<svg preserveAspectRatio="none" width="100%" height="100%" overflow="visible" style="display: block;" viewBox="0 0 26.4408 27.9061" fill="none" xmlns="http://www.w3.org/2000/svg">
<path id="Icon" d="M25.3694 13.1492L13.8819 24.6367C12.4745 26.044 10.5658 26.8346 8.5756 26.8346C6.58537 26.8346 4.67665 26.044 3.26935 24.6367C1.86204 23.2294 1.07143 21.3207 1.07143 19.3305C1.07143 17.3402 1.86204 15.4315 3.26935 14.0242L14.7568 2.53671C15.6951 1.59851 16.9675 1.07143 18.2944 1.07143C19.6212 1.07143 20.8936 1.59851 21.8319 2.53671C22.7701 3.47491 23.2971 4.74739 23.2971 6.07421C23.2971 7.40103 22.7701 8.67351 21.8319 9.61171L10.3318 21.0992C9.86275 21.5683 9.22651 21.8319 8.5631 21.8319C7.89969 21.8319 7.26345 21.5683 6.79435 21.0992C6.32525 20.6301 6.06171 19.9939 6.06171 19.3305C6.06171 18.667 6.32525 18.0308 6.79435 17.5617L17.4069 6.96171" stroke="var(--stroke-0, white)" stroke-width="2.14286" stroke-linecap="round" stroke-linejoin="round"/>
</svg>
